HIERARCHY
ROOT Hips
{
	OFFSET 0.000000 0.000000 0.000000
	CHANNELS 6 Xposition Yposition Zposition Zrotation Yrotation Xrotation 
	JOINT LeftUpLeg_virtual
	{
		OFFSET 0.000000 0.000000 0.000000
		CHANNELS 3 Zrotation Yrotation Xrotation
		JOINT LeftUpLeg
		{
			OFFSET 10.205400 -3.823500 0.155100
			CHANNELS 3 Zrotation Yrotation Xrotation
			JOINT LeftLeg
			{
				OFFSET 0.708757 -12.982077 0.567790
				CHANNELS 3 Zrotation Yrotation Xrotation
				JOINT LeftFoot
				{
					OFFSET -0.708756 -10.717838 -2.184338
					CHANNELS 3 Zrotation Yrotation Xrotation
					JOINT LeftToeBase
					{
						OFFSET 0.108149 -7.191104 7.560241
						CHANNELS 3 Zrotation Yrotation Xrotation
						End Site
						{
							OFFSET 0.000000 0.000000 0.000000
						}
					}
				}
			}
		}
	}
	JOINT RightUpLeg_virtual
	{
		OFFSET 0.000000 0.000000 0.000000
		CHANNELS 3 Zrotation Yrotation Xrotation
		JOINT RightUpLeg
		{
			OFFSET -10.205400 -3.823500 0.005500
			CHANNELS 3 Zrotation Yrotation Xrotation
			JOINT RightLeg
			{
				OFFSET -0.708756 -12.982134 0.610632
				CHANNELS 3 Zrotation Yrotation Xrotation
				JOINT RightFoot
				{
					OFFSET 0.708754 -10.717769 -1.945823
					CHANNELS 3 Zrotation Yrotation Xrotation
					JOINT RightToeBase
					{
						OFFSET -0.108140 -7.191069 7.372968
						CHANNELS 3 Zrotation Yrotation Xrotation
						End Site
						{
							OFFSET 0.000000 0.000000 0.000000
						}
					}
				}
			}
		}
	}
	JOINT Spine_virtual
	{
		OFFSET 0.000000 0.000000 0.000000
		CHANNELS 3 Zrotation Yrotation Xrotation
		JOINT Spine
		{
			OFFSET 0.000000 6.876099 0.125700
			CHANNELS 3 Zrotation Yrotation Xrotation
			JOINT Spine1
			{
				OFFSET 0.000000 8.022060 0.146608
				CHANNELS 3 Zrotation Yrotation Xrotation
				JOINT Spine2
				{
					OFFSET 0.000000 9.168068 0.167552
					CHANNELS 3 Zrotation Yrotation Xrotation
					JOINT Neck_virtual
					{
						OFFSET 0.000000 0.000000 0.000000
						CHANNELS 3 Zrotation Yrotation Xrotation
						JOINT Neck
						{
							OFFSET 0.000000 10.314075 0.188496
							CHANNELS 3 Zrotation Yrotation Xrotation
							JOINT Head
							{
								OFFSET 0.000000 7.643700 -2.377400
								CHANNELS 3 Zrotation Yrotation Xrotation
								End Site
								{
									OFFSET 0.000000 0.000000 0.000000
								}
							}
						}
					}
					JOINT LeftShoulder_virtual
					{
						OFFSET 0.000000 0.000000 0.000000
						CHANNELS 3 Zrotation Yrotation Xrotation
						JOINT LeftShoulder
						{
							OFFSET 4.392200 8.824978 0.174984
							CHANNELS 3 Zrotation Yrotation Xrotation
							JOINT LeftArm
							{
								OFFSET 8.771219 -2.981674 -0.026999
								CHANNELS 3 Zrotation Yrotation Xrotation
								JOINT LeftForeArm
								{
									OFFSET 8.512804 0.000000 -0.000000
									CHANNELS 3 Zrotation Yrotation Xrotation
									JOINT LeftHand
									{
										OFFSET 18.484802 0.000000 -0.000000
										CHANNELS 3 Zrotation Yrotation Xrotation
										End Site
										{
											OFFSET 0.000000 0.000000 0.000000
										}
									}
								}
							}
						}
					}
					JOINT RightShoulder_virtual
					{
						OFFSET 0.000000 0.000000 0.000000
						CHANNELS 3 Zrotation Yrotation Xrotation
						JOINT RightShoulder
						{
							OFFSET -4.392200 8.824993 0.141379
							CHANNELS 3 Zrotation Yrotation Xrotation
							JOINT RightArm
							{
								OFFSET -8.771282 -2.981682 -0.094208
								CHANNELS 3 Zrotation Yrotation Xrotation
								JOINT RightForeArm
								{
									OFFSET -8.494598 0.000000 0.000000
									CHANNELS 3 Zrotation Yrotation Xrotation
									JOINT RightHand
									{
										OFFSET -18.483803 0.000000 0.000001
										CHANNELS 3 Zrotation Yrotation Xrotation
										End Site
										{
											OFFSET 0.000000 0.000000 0.000000
										}
									}
								}
							}
						}
					}
				}
			}
		}
	}
}
MOTION
Frames: 7
Frame Time: 0.033333
1.948156 35.822971 15.318122 179.940705 6.715406 179.821915 -2.602795 -1.810284 9.491689 -15.083026 0.490119 -19.288038 16.506627 10.746438 20.110246 1.418173 -0.195220 6.296643 0.000000 0.000000 0.000000 0.817673 -0.542691 8.967395 4.558504 -1.068584 -12.361256 -6.067821 -0.380016 14.916646 4.222573 1.850699 6.078180 0.000000 0.000000 0.000000 0.629974 0.822814 -1.012912 -3.597433 1.301580 -7.721111 -0.003191 -3.465444 3.795767 0.012265 -0.014727 -0.009669 -0.252972 -1.857219 6.447428 -6.879221 6.986058 14.612005 0.000000 0.000000 0.000000 1.220936 -1.024462 3.224296 -5.547643 0.578648 -8.605860 -7.834271 7.143303 -39.106084 0.660888 -41.991279 -1.207827 0.000000 0.000000 0.000000 -2.178694 -0.309920 2.893510 17.734742 -4.545078 -16.003917 11.365755 -9.524709 -42.395261 1.290777 29.615215 1.481257 0.000000 0.000000 0.000000 
1.943931 35.823971 15.309862 179.906199 6.663598 179.723888 -2.537711 -1.578619 9.375765 -15.338455 1.323694 -19.583341 16.281911 11.334468 20.206696 1.636859 0.076990 6.881237 0.000000 0.000000 0.000000 0.818049 -0.549342 9.047330 4.676058 -1.602942 -12.308906 -5.862964 -0.933099 15.173200 3.995676 1.679812 6.183141 0.000000 0.000000 0.000000 0.605437 0.844692 -0.922324 -3.623990 1.292573 -7.712681 -0.010765 -3.477003 3.844865 0.020299 -0.022845 -0.053112 -0.246953 -1.797405 6.478151 -6.889574 6.989684 14.591091 0.000000 0.000000 0.000000 1.224655 -1.039063 3.263052 -5.573253 0.536344 -8.514879 -7.796920 7.090568 -38.749436 0.772595 -41.881077 -1.309184 0.000000 0.000000 0.000000 -2.162396 -0.322140 2.969540 17.739398 -4.558760 -16.012830 11.402460 -9.466113 -42.132384 1.276942 29.605100 1.648317 0.000000 0.000000 0.000000 
1.934031 35.828030 15.307054 179.918575 6.507775 179.782942 -2.531465 -1.646827 9.372811 -15.314717 1.289124 -19.638884 16.249090 11.388711 20.157391 1.658311 0.042687 6.967157 0.000000 0.000000 0.000000 0.861787 -0.556897 9.049978 4.636408 -1.631708 -12.374081 -5.851466 -0.936326 15.178786 3.920682 1.692169 6.142163 0.000000 0.000000 0.000000 0.609180 0.815219 -0.939699 -3.640995 1.301207 -7.761564 -0.000923 -3.470316 3.814039 0.021406 -0.024901 -0.007008 -0.255611 -1.836654 6.479284 -6.842154 6.957400 14.507708 0.000000 0.000000 0.000000 1.182454 -1.029162 3.249822 -5.630697 0.438533 -8.439551 -7.707402 6.993007 -38.505106 0.687344 -41.756956 -1.210191 0.000000 0.000000 0.000000 -2.175258 -0.280247 2.952137 17.748805 -4.523523 -15.984543 11.320595 -9.376228 -41.934278 1.336513 29.477628 1.654868 0.000000 0.000000 0.000000 
1.921299 35.829018 15.309926 179.826668 6.314773 179.816082 -2.623732 -1.734817 9.367534 -15.295208 1.299072 -19.688869 16.228528 11.466036 20.176782 1.711003 -0.001750 6.940093 0.000000 0.000000 0.000000 0.824054 -0.678760 9.049055 4.520962 -1.580160 -12.422679 -5.818484 -0.920993 15.321274 3.819378 1.703531 6.045989 0.000000 0.000000 0.000000 0.545048 0.771790 -0.923903 -3.735315 1.343331 -7.789406 -0.018205 -3.426769 3.834678 -0.000937 -0.010252 -0.013040 -0.199659 -1.872665 6.536980 -6.813065 6.897062 14.444417 0.000000 0.000000 0.000000 1.258038 -1.025420 3.327260 -5.662362 0.272469 -8.527621 -7.543743 6.843519 -37.948227 0.674123 -41.653099 -1.169089 0.000000 0.000000 0.000000 -2.116064 -0.309268 2.987350 17.720125 -4.541359 -15.984128 11.308084 -9.291394 -41.709657 1.368117 29.357096 1.645255 0.000000 0.000000 0.000000 
1.913941 35.828640 15.313039 179.822229 6.176264 179.773461 -2.621181 -1.711699 9.386989 -15.273918 1.186450 -19.686347 16.147749 11.476148 20.130007 1.780704 -0.014840 6.995934 0.000000 0.000000 0.000000 0.847714 -0.684091 9.064499 4.476748 -1.528530 -12.450127 -5.792126 -0.905355 15.445506 3.662669 1.696136 5.948273 0.000000 0.000000 0.000000 0.551485 0.716805 -0.857132 -3.786922 1.375476 -7.808622 0.015490 -3.415546 3.822824 0.030611 -0.010852 -0.000244 -0.177473 -1.627694 6.508037 -6.758000 6.853892 14.337880 0.000000 0.000000 0.000000 1.224412 -0.974869 3.319120 -5.736006 0.167506 -8.430874 -7.381765 6.729958 -37.544334 0.667405 -41.573517 -1.126058 0.000000 0.000000 0.000000 -2.141344 -0.244288 3.009577 17.706506 -4.502843 -16.075846 11.323678 -9.159646 -41.488820 1.405190 29.259810 1.606287 0.000000 0.000000 0.000000 
1.912063 35.828720 15.309916 179.886788 5.929318 179.756987 -2.565990 -1.800234 9.389085 -15.250849 1.063077 -19.673699 15.997194 11.401264 20.096978 1.844392 -0.002260 7.041373 0.000000 0.000000 0.000000 0.960109 -0.782549 9.091534 4.415136 -1.539973 -12.475750 -5.711926 -0.840260 15.616591 3.489896 1.693413 5.819338 0.000000 0.000000 0.000000 0.574890 0.675969 -0.759702 -3.813186 1.405782 -7.817245 0.042863 -3.408200 3.824950 0.004981 -0.021430 -0.009638 -0.152967 -1.761937 6.533732 -6.707878 6.826734 14.222297 0.000000 0.000000 0.000000 1.297611 -0.962652 3.337960 -5.801110 0.029059 -8.369770 -7.222117 6.684663 -37.241279 0.697014 -41.509778 -1.100609 0.000000 0.000000 0.000000 -2.100348 -0.233641 3.024516 17.706760 -4.498035 -16.038777 11.290254 -9.107266 -41.386008 1.437523 29.167141 1.548766 0.000000 0.000000 0.000000 
1.914393 35.830444 15.302299 179.912893 5.686614 179.767983 -2.542532 -1.850920 9.398791 -15.194179 0.925652 -19.677290 15.899376 11.364486 20.053073 1.922688 0.000927 7.122470 0.000000 0.000000 0.000000 1.017361 -0.835984 9.112239 4.389151 -1.622536 -12.506276 -5.682255 -0.871175 15.800386 3.396764 1.742240 5.674445 0.000000 0.000000 0.000000 0.567618 0.658367 -0.645855 -3.830193 1.437271 -7.838089 0.086988 -3.381686 3.831340 0.020699 -0.013821 0.003115 -0.145977 -1.747870 6.562450 -6.667141 6.706303 14.124306 0.000000 0.000000 0.000000 1.278816 -0.937097 3.411512 -5.858933 -0.056784 -8.350524 -7.297848 6.632155 -37.091916 0.804481 -41.476904 -1.143075 0.000000 0.000000 0.000000 -2.093218 -0.195681 3.036540 17.705522 -4.526418 -16.043728 11.361677 -9.055233 -41.447316 1.515241 29.195555 1.460382 0.000000 0.000000 0.000000 
